{"title":"Harry Potter ja Azkabani vang 2004 EESTI SUB","uid":9002176,"size":2282084088,"categoryP":"video","categoryS":"movies","magnet":"?xt=urn:btih:add606e755a7924fd207129a0b9faf003ea73742&amp;dn=Harry+Potter+ja+Azkabani+vang+2004+EESTI+SUB&amp;tr=udp%3A%2F%2Ftracker.openbittorrent.com%3A80&amp;tr=udp%3A%2F%2Fopen.demonii.com%3A1337&amp;tr=udp%3A%2F%2Ftracker.coppersurfer.tk%3A6969&amp;tr=udp%3A%2F%2Fexodus.desync.com%3A6969","seeders":0,"leechers":1,"uploader":"immri","files":1,"time":1380965500,"description":"Format                                   : AVI\nFormat/Info                              : Audio Video Interleave\nFile size                                : 2.13 GiB\nDuration                                 : 2h 21mn\nOverall bit rate                         : 2 147 Kbps\n\nVideo\nID                                       : 0\nFormat                                   : MPEG-4 Visual\nFormat settings, BVOP                    : 1\nFormat settings, QPel                    : No\nFormat settings, GMC                     : No warppoints\nFormat settings, Matrix                  : Default (H.263)\nMuxing mode                              : Packed bitstream\nCodec ID                                 : DX50\nCodec ID/Hint                            : DivX 5\nDuration                                 : 2h 21mn\nBit rate                                 : 1 946 Kbps\nWidth                                    : 720 pixels\nHeight                                   : 300 pixels\nDisplay aspect ratio                     : 2.40:1\nFrame rate                               : 25.000 fps\nColor space                              : YUV\nChroma subsampling                       : 4:2:0\nBit depth                                : 8 bits\nScan type                                : Progressive\nCompression mode                         : Lossy\nBits/(Pixel*Frame)                       : 0.360\nStream size                              : 1.93 GiB (91%)\nTitle                                    : Video \nWriting library                          : DivX 2682\n\nAudio\nID                                       : 1\nFormat                                   : MPEG Audio\nFormat version                           : Version 1\nFormat profile                           : Layer 3\nMode                                     : Joint stereo\nCodec ID                                 : 55\nCodec ID/Hint                            : MP3\nDuration                                 : 2h 21mn\nBit rate mode                            : Constant\nBit rate                                 : 192 Kbps\nChannel(s)                               : 2 channels\nSampling rate                            : 48.0 KHz\nCompression mode                         : Lossy\nStream size                              : 195 MiB (9%)\nAlignment                                : Split accross interleaves\nInterleave, duration                     : 40 ms (1.00 video frame)\nInterleave, preload duration             : 500 ms\nTitle                                    : Audio - en-US01\n\n","torrent":{"xt":"urn:btih:add606e755a7924fd207129a0b9faf003ea73742","amp;dn":"Harry+Potter+ja+Azkabani+vang+2004+EESTI+SUB","amp;tr":["udp%3A%2F%2Ftracker.openbittorrent.com%3A80","udp%3A%2F%2Fopen.demonii.com%3A1337","udp%3A%2F%2Ftracker.coppersurfer.tk%3A6969","udp%3A%2F%2Fexodus.desync.com%3A6969"],"infoHash":"add606e755a7924fd207129a0b9faf003ea73742","infoHashBuffer":{"type":"Buffer","data":[173,214,6,231,85,167,146,79,210,7,18,154,11,159,175,0,62,167,55,66]},"announce":[],"urlList":[]}}